<?xml version="1.0" standalone="no"?>
<!DOCTYPE svg PUBLIC "-//W3C//DTD SVG 20010904//EN"
 "http://www.w3.org/TR/2001/REC-SVG-20010904/DTD/svg10.dtd">
<svg version="1.0" xmlns="http://www.w3.org/2000/svg"
 width="90.000000pt" height="90.000000pt" viewBox="0 0 90.000000 90.000000"
 preserveAspectRatio="xMidYMid meet">
<metadata>
Created by potrace 1.11, written by Peter Selinger 2001-2013
</metadata>
<g transform="translate(0.000000,90.000000) scale(0.100000,-0.100000)"
fill="#000000" stroke="none">
<path d="M382 862 c-18 -3 -22 -9 -19 -30 2 -14 0 -43 -3 -64 -9 -47 -8 -47
133 -46 l107 1 -2 66 -3 66 -80 1 c-45 0 -87 2 -95 5 -8 3 -25 3 -38 1z"/>
<path d="M660 790 l0 -67 120 -1 120 -1 0 69 0 69 -120 -1 -120 -1 0 -67z"/>
<path d="M78 705 c-2 -2 -20 -5 -41 -7 l-37 -2 0 -348 0 -349 123 3 c102 3
121 5 119 18 -6 24 -5 137 0 146 3 5 2 18 -1 28 -4 11 -4 38 -1 61 4 23 3 52
-1 63 -5 12 -4 24 0 27 5 3 5 21 1 40 -10 44 7 60 63 56 38 -2 89 -20 59 -21
-8 0 -10 -5 -6 -12 4 -6 7 -81 6 -165 l-2 -153 46 -45 45 -45 80 0 c66 0 84 4
101 20 23 21 41 18 31 -5 -4 -13 14 -15 116 -15 l121 0 0 349 0 348 -120 1
-120 0 0 -229 0 -229 -30 0 c-28 0 -30 2 -31 43 -1 23 0 46 1 52 1 5 1 17 1
25 0 8 0 47 0 85 0 39 -1 81 -1 95 -1 14 -2 54 -3 90 l-2 65 -137 1 c-76 0
-138 -3 -138 -8 0 -4 -8 -8 -18 -8 -10 0 -24 -9 -32 -20 -20 -27 -33 -25 -28
5 4 19 0 26 -23 34 -15 5 -30 7 -33 4 -9 -9 -69 -10 -87 -2 -9 5 -18 6 -21 4z"/>
</g>
</svg>
